<svg width="540" height="1279" viewBox="0 0 540 1279" fill="none" xmlns="http://www.w3.org/2000/svg">
<path d="M256.282 1271.99C260.601 1245.88 252.898 1219.09 235.768 1200.65C172.647 1132.69 215.774 1022.5 303.5 1022.5H454.24C480.069 1022.5 501.008 990.221 501.008 961.409C501.008 932.599 480.069 925.5 454.24 925.5H246.348C227.853 925.5 212.859 892.518 212.859 871.887C212.859 851.256 227.853 836 246.348 836H342.645H438.943C459.456 836 476.087 817.45 476.087 794.567C476.087 771.581 457.234 760.44 436.631 760C367.62 758.525 329.332 750.462 278.5 748.5C256.51 747.651 204.98 723.784 196.797 701M212.859 720.5C147.388 656.94 208.826 583.048 299.818 583.048H428.491C455.282 583.048 477 561.203 477 534.252C477 507.308 455.282 485.463 428.491 485.463H212.859C193.675 485.463 178.123 469.817 178.123 450.523C178.123 431.224 193.675 415.584 212.859 415.584H412.624C433.902 415.584 451.151 398.231 451.151 376.828C451.151 355.33 433.73 338.001 412.36 337.589C340.78 336.21 296.674 329.968 243.95 328.133C221.141 327.339 200.491 313.632 192.004 292.322C176.104 252.4 209.343 210.209 251.616 216.657L303.057 224.503C351.952 231.962 388.751 180.678 366.313 136.349C355.943 115.864 335.022 102.963 312.167 102.963H285.581C241.676 102.963 92.9271 107.508 32 23" stroke="#494220" stroke-width="77.9701"/>
</svg>
