<svg width="16" height="20" viewBox="0 0 16 20" fill="none" xmlns="http://www.w3.org/2000/svg">
<path fill-rule="evenodd" clip-rule="evenodd" d="M5.94389 1.14137C4.84902 1.76133 3.95326 2.28594 3.95345 2.30728C3.95394 2.36235 6.58117 3.80864 6.67442 3.80511C6.71684 3.80357 7.02455 3.6496 7.35819 3.463L7.96491 3.12379L8.62752 3.49401L9.2901 3.86431L10.3752 3.33431C12.0102 2.53568 12.18 2.44816 12.1534 2.41876C12.1181 2.37975 11.5316 2.03729 9.94057 1.12677C9.17162 0.686699 8.42529 0.255228 8.28201 0.16792C8.13875 0.0806122 8.00198 0.0103787 7.97809 0.0117382C7.9542 0.0130977 7.03878 0.521438 5.94389 1.14137ZM1.1418 3.8444L0.00205623 4.48433V7.29289C0.00205623 8.83762 0.0170222 10.1014 0.0353799 10.1014C0.053674 10.1014 0.614432 9.8372 1.28148 9.51426L2.49429 8.92709V5.96668L3.08695 6.31767C3.54365 6.58788 4.00062 6.85755 4.45787 7.12667L5.2361 7.58468L5.58239 7.41447C5.79958 7.30755 6.01632 7.19958 6.23263 7.09058C6.39978 7.00597 6.81009 6.80508 7.14441 6.64409C7.47873 6.48302 7.7882 6.32105 7.83208 6.28414C7.89037 6.2351 7.17955 5.80813 5.20296 4.70481C3.71304 3.87313 2.44622 3.19531 2.38779 3.19856C2.32937 3.20181 1.76868 3.4924 1.1418 3.8444ZM12.3588 4.02411C11.5826 4.40502 10.9469 4.7319 10.9462 4.75055C10.9455 4.76916 11.3686 5.04261 11.8864 5.35811C12.4042 5.67367 12.8279 5.94873 12.8279 5.96945C12.8279 5.99012 12.3697 6.23144 11.8097 6.50583C11.2497 6.78015 9.83419 7.47502 8.66407 8.05L4.74337 9.9764C3.75712 10.461 2.86812 10.8978 2.76784 10.9472C0.753365 11.9385 0.199666 12.2136 0.123628 12.2608C0.0471661 12.3083 0.0298472 12.5845 0.0162379 13.9705L0 15.6237L1.01921 16.1882L2.0384 16.7527L3.45167 16.0594C4.22899 15.6781 4.86494 15.3461 4.86494 15.3217C4.86494 15.2973 4.7213 15.1956 4.54582 15.0955C4.37025 14.9955 4.00785 14.774 3.74039 14.6032C3.47295 14.4325 3.20628 14.2758 3.14773 14.255C3.0892 14.2343 3.04216 14.1981 3.04312 14.1744C3.04409 14.1509 3.66643 13.8295 4.42601 13.4603C5.90134 12.7433 7.03038 12.1907 9.45428 10.9992C10.5382 10.4665 11.6222 9.93412 12.7063 9.40209C13.6591 8.9346 14.767 8.38861 15.1682 8.18879L15.8976 7.82548L15.9138 6.15349L15.9301 4.48157L14.8964 3.90482C14.3278 3.58764 13.8418 3.32889 13.8163 3.32984C13.7909 3.33071 13.135 3.6431 12.3588 4.02411ZM15.6206 10.056C15.4683 10.1369 15.1674 10.2883 14.952 10.3925C14.7366 10.4967 14.3278 10.6971 14.0436 10.8381L13.5269 11.0943L13.5151 12.5621C13.5086 13.3694 13.4813 14.0264 13.4544 14.0221C13.3932 14.0122 12.4248 13.4724 11.4514 12.9054C10.7488 12.4962 10.7047 12.4799 10.5396 12.5688C10.4442 12.6202 9.8737 12.8983 9.27193 13.1869C8.67013 13.4755 8.15815 13.7304 8.13407 13.7535C8.11005 13.7766 9.32121 14.4901 10.8256 15.3393L13.5608 16.8832L14.7292 16.2262C15.3718 15.8649 15.9182 15.5353 15.9434 15.4939C16 15.4007 15.9951 9.89614 15.9384 9.90359C15.916 9.90651 15.773 9.97511 15.6206 10.056ZM9.15036 16.5169C8.94768 16.6116 8.74506 16.7065 8.5425 16.8015C7.9308 17.0891 8.05068 17.0987 7.32294 16.7049C6.83824 16.4426 6.62931 16.3617 6.53862 16.401C6.4706 16.4304 5.88517 16.7167 5.23756 17.0372C4.59 17.3576 4.0377 17.6198 4.01022 17.6198C3.73853 17.6198 4.19022 17.9131 5.9332 18.8688L7.97731 19.9896L8.83736 19.528C9.3104 19.2742 10.2645 18.7658 10.9576 18.3984C11.6507 18.0309 12.2092 17.7206 12.1988 17.7089C12.1882 17.6973 11.6075 17.3731 10.9082 16.9886L9.63665 16.2895L9.15036 16.5169Z" fill="black"/>
</svg>
