<svg width="35" height="26" viewBox="0 0 35 26" fill="none" xmlns="http://www.w3.org/2000/svg">
<path id="Vector" d="M29.6525 2.32022C27.4048 1.31975 25.0319 0.609909 22.5944 0.208984C22.2608 0.788681 21.959 1.38508 21.6902 1.99576C19.0939 1.61542 16.4535 1.61542 13.8571 1.99576C13.5882 1.38518 13.2864 0.788786 12.953 0.208984C10.514 0.61327 8.13946 1.32479 5.88949 2.32536C1.4226 8.75055 0.211712 15.0161 0.817155 21.1927C3.43308 23.0717 6.36097 24.5008 9.47372 25.4177C10.1745 24.5013 10.7947 23.529 11.3277 22.5113C10.3154 22.1437 9.33848 21.6902 8.40813 21.1561C8.65296 20.9834 8.89244 20.8056 9.12391 20.6329C11.8311 21.8707 14.7861 22.5124 17.7777 22.5124C20.7694 22.5124 23.7244 21.8707 26.4316 20.6329C26.6657 20.8186 26.9052 20.9965 27.1474 21.1561C26.2152 21.6911 25.2364 22.1454 24.2224 22.5139C24.7547 23.5312 25.3749 24.5026 26.0764 25.4177C29.1917 24.5044 32.122 23.0762 34.7383 21.1954C35.4488 14.0324 33.5248 7.82444 29.6525 2.32022ZM12.0946 17.3941C10.4074 17.3941 9.01357 15.9056 9.01357 14.0743C9.01357 12.243 10.359 10.7414 12.0892 10.7414C13.8195 10.7414 15.2026 12.243 15.173 14.0743C15.1434 15.9056 13.814 17.3941 12.0946 17.3941ZM23.4608 17.3941C21.771 17.3941 20.3825 15.9056 20.3825 14.0743C20.3825 12.243 21.728 10.7414 23.4608 10.7414C25.1938 10.7414 26.5662 12.243 26.5366 14.0743C26.507 15.9056 25.1804 17.3941 23.4608 17.3941Z" fill="black"/>
</svg>
