<svg width="22" height="22" viewBox="0 0 22 22" fill="none" xmlns="http://www.w3.org/2000/svg">
<path fill-rule="evenodd" clip-rule="evenodd" d="M16.7569 9.91675L16.7566 12.4927C17.9085 11.7085 18.8016 10.809 19.6775 9.927C19.9168 9.68604 20.1548 9.44629 20.3965 9.21057C21.0767 8.54773 21.1373 7.8158 20.8003 6.96741C20.1197 5.25391 19.129 3.7854 17.6944 2.60108C14.9478 0.333255 11.7923 -0.518063 8.38481 0.310672C2.69365 1.69507 -0.474564 6.4065 0.0579069 12.1718C0.193893 13.6423 0.599899 15.1212 1.54741 16.3503C2.05498 17.0085 3.03349 17.1882 4.0955 16.7898C4.67387 16.5728 4.65996 16.0885 4.64604 15.6117C4.64384 15.5409 4.64189 15.4703 4.64189 15.4008C4.64116 14.8822 4.64214 14.3635 4.64311 13.8449C4.64482 12.7894 4.64653 11.7339 4.63554 10.6785C4.62968 10.1157 4.78862 9.6344 5.36064 9.52832C5.88579 9.43091 6.45268 9.43726 6.98198 9.52137C7.48393 9.60132 7.75517 9.92078 7.7354 10.5332C7.68779 12.0199 7.70561 13.5088 7.72368 14.997L7.72807 15.3514C7.72881 15.4047 7.71928 15.4651 7.70952 15.5276C7.67583 15.7419 7.63847 15.9803 7.99394 16.033C8.35796 16.087 8.67534 16.0219 8.92949 15.6979C9.04253 15.5537 9.07109 15.4044 9.07353 15.2543C9.07549 15.1261 9.0584 14.9972 9.05913 14.8702C9.06889 12.8466 9.05327 10.8224 9.0684 8.79871C9.07817 7.48731 9.44731 7.15625 10.7979 7.16834C11.9749 7.17896 12.3311 7.55408 12.3328 8.80005C12.3355 10.7474 12.3335 12.6949 12.3335 14.6458C13.4212 14.5901 13.7266 14.0614 13.6993 13.0845C13.6663 11.9102 13.6719 10.7347 13.6775 9.55933C13.6827 8.51783 13.6878 7.47632 13.6661 6.43531C13.6426 5.31482 13.8558 4.93994 15.1087 5.04554C15.1941 5.05274 15.2801 5.05078 15.3663 5.04883C15.4085 5.04785 15.4507 5.04688 15.493 5.047C16.6609 5.05115 16.7549 5.14258 16.7559 6.3114C16.7571 7.50196 16.7571 8.69251 16.7569 9.91675ZM13.8904 16.6309C10.8709 18.1937 7.63457 19.097 4.00005 19.7225C6.76543 21.5966 9.44218 22.3374 12.511 21.8582C18.232 20.965 21.9549 16.1754 21.98 10.5385C21.9803 10.4999 21.9849 10.4573 21.9898 10.4135C22.0074 10.2512 22.0267 10.0719 21.8323 10.015C21.6138 9.95093 21.5301 10.1029 21.4434 10.2598C21.4156 10.3103 21.3875 10.3613 21.3545 10.4058C19.366 13.0908 16.8252 15.1119 13.8904 16.6309Z" fill="black"/>
</svg>
