<svg width="684" height="1531" viewBox="0 0 684 1531" fill="none" xmlns="http://www.w3.org/2000/svg">
<path d="M247.153 1502.7C141.884 1401.1 213.808 1295.02 360.111 1295.02H566.999C610.074 1295.02 644.994 1260.1 644.994 1217.02C644.994 1173.95 610.074 1139.03 566.999 1139.03H220.293C189.448 1139.03 164.442 1114.02 164.442 1083.18C164.442 1052.33 189.447 1027.33 220.292 1027.33H541.486C575.698 1027.33 603.432 999.591 603.432 965.379C603.432 931.013 575.422 903.314 541.062 902.655C425.971 900.45 355.056 890.473 270.283 887.54C233.609 886.271 200.407 864.36 186.76 830.296C161.195 766.48 214.64 699.038 282.609 709.346L365.319 721.888C443.934 733.81 503.102 651.833 467.025 580.974C450.352 548.228 416.713 527.607 379.966 527.607H337.22C266.627 527.607 27.459 534.871 -70.5031 399.786C-166.859 266.915 -70.5031 -20.5 -70.5031 -20.5" stroke="#494220" stroke-width="77.9701"/>
</svg>
