<svg width="559" height="839" viewBox="0 0 559 839" fill="none" xmlns="http://www.w3.org/2000/svg">
<path d="M151.922 1545.86C151.922 1545.86 125.493 1030.68 139.984 952.128L155.922 865.737C163.125 826.692 150.278 786.635 121.71 759.063C16.4417 657.46 88.366 479.376 234.669 479.376H441.557C484.632 479.376 519.552 444.457 519.552 401.381C519.552 358.306 484.632 323.386 441.557 323.386H94.8503C64.0054 323.386 39 298.381 39 267.536C39 236.691 64.0048 211.685 94.8496 211.685H416.044C450.255 211.685 477.99 183.951 477.99 149.739C477.99 115.373 449.98 87.674 415.62 87.0157C300.528 84.8101 229.614 74.8332 144.841 71.9003C108.167 70.6317 81.9647 48.7203 68.318 14.6562" stroke="#494220" stroke-width="77.9701"/>
</svg>
