<svg width="183" height="160" viewBox="0 0 183 160" fill="none" xmlns="http://www.w3.org/2000/svg">
<g clip-path="url(#clip0_89_39)">
<path fill-rule="evenodd" clip-rule="evenodd" d="M53 39.0278L98.0123 0.708119C98.8173 0.244222 99.7305 0 100.66 0C101.59 0 102.503 0.244222 103.308 0.708119C104.226 1.22572 104.969 2.00533 105.441 2.94703C105.913 3.88872 106.092 4.94957 105.956 5.99359V155.308C105.856 156.183 105.54 157.02 105.034 157.742C104.529 158.464 103.851 159.048 103.062 159.442C102.273 159.836 101.397 160.027 100.515 159.997C99.6336 159.967 98.7732 159.718 98.0123 159.272L53 123.595V39.0278ZM13.3333 40H40V120H13.3333L4 117.333L0 109.333V50.6667L4 42.6667C6.66667 40 9.33333 40 13.3333 40Z" fill="black"/>
<path d="M180.298 104.864C181.382 106.037 181.97 107.583 181.939 109.179C181.908 110.776 181.26 112.298 180.132 113.428C179.003 114.557 177.481 115.206 175.884 115.238C174.288 115.27 172.741 114.683 171.568 113.6L148 90.0321L124.432 113.6C123.867 114.211 123.185 114.702 122.426 115.043C121.666 115.383 120.846 115.568 120.014 115.584C119.182 115.6 118.356 115.448 117.584 115.137C116.812 114.826 116.111 114.362 115.523 113.773C114.934 113.185 114.471 112.483 114.161 111.711C113.85 110.939 113.699 110.112 113.715 109.28C113.732 108.449 113.917 107.628 114.258 106.87C114.599 106.111 115.091 105.429 115.702 104.864L139.27 81.2961L115.702 57.7401C115.091 57.1756 114.599 56.4935 114.258 55.7346C113.917 54.9757 113.732 54.1556 113.715 53.3237C113.699 52.4917 113.85 51.6649 114.161 50.8929C114.471 50.1208 114.934 49.4195 115.523 48.8309C116.111 48.2422 116.812 47.7785 117.584 47.4674C118.356 47.1563 119.182 47.0043 120.014 47.0205C120.846 47.0366 121.666 47.2207 122.426 47.5615C123.185 47.9024 123.867 48.393 124.432 49.0041L148 72.5661L171.568 48.9981C172.741 47.915 174.288 47.328 175.884 47.3601C177.481 47.3922 179.003 48.041 180.132 49.1704C181.26 50.2999 181.908 51.8223 181.939 53.4187C181.97 55.0152 181.382 56.5616 180.298 57.7341L156.73 81.2961L180.298 104.864Z" fill="black"/>
</g>
<defs>
<clipPath id="clip0_89_39">
<rect width="183" height="160" fill="white"/>
</clipPath>
</defs>
</svg>
