<svg width="259" height="1503" viewBox="0 0 259 1503" fill="none" xmlns="http://www.w3.org/2000/svg">
<path d="M399.481 1502.7C294.212 1401.1 366.136 1295.02 512.439 1295.02H719.327C762.402 1295.02 797.322 1260.1 797.322 1217.02C797.322 1173.95 762.402 1139.03 719.327 1139.03H372.621C341.776 1139.03 316.77 1114.02 316.77 1083.18C316.77 1052.33 341.775 1027.33 372.62 1027.33H693.814C728.026 1027.33 755.76 999.591 755.76 965.379C755.76 931.013 727.75 903.314 693.39 902.655C578.299 900.45 507.384 890.473 422.611 887.54C385.937 886.271 352.735 864.36 339.088 830.296C313.523 766.48 366.968 699.038 434.937 709.346L517.648 721.888C596.263 733.81 655.43 651.833 619.353 580.974C602.68 548.228 569.041 527.607 532.294 527.607H489.548C418.955 527.607 179.787 534.871 81.8251 399.786C-14.5313 266.915 81.8251 -20.5 81.8251 -20.5" stroke="#494220" stroke-width="77.9701"/>
</svg>
