<svg width="1318" height="1032" viewBox="0 0 1318 1032" fill="none" xmlns="http://www.w3.org/2000/svg">
<path opacity="0.67" d="M677.288 645.259L90.2281 409.072L29.7252 471.783L50.6815 556.312L677.288 645.259ZM731.097 -124.108L646.646 -145.301L583.936 -84.7968L820.117 502.274L731.097 -124.108ZM948.77 -132.853L872.507 -175L796.251 -132.853L872.507 495.198L948.77 -132.853ZM523.189 -59.5865L436.058 -58.1687L391.31 16.4368L771.267 522.211L523.189 -59.5865ZM339.237 56.5363L255.573 80.5643L231.546 164.229L729.509 554.523L339.237 56.5363ZM191.446 216.463L116.841 261.211L115.424 348.343L697.447 596.429L191.446 216.463ZM1513.46 164.231L1489.43 80.5664L1405.77 56.5383L1015.48 554.509L1513.46 164.231ZM1074.81 697.493L1702.85 773.749L1745 697.493L1702.85 621.231L1074.81 697.493ZM1629.58 348.183L1628.17 261.052L1553.56 216.303L1047.55 596.429L1629.58 348.183ZM1694.1 556.097L1715.06 471.563L1654.56 409.01L1067.72 645.279L1694.1 556.097ZM1160.91 -84.7827L1098.36 -145.287L1013.83 -124.33L924.883 502.066L1160.91 -84.7827ZM1353.53 16.4502L1308.78 -58.1546L1221.65 -59.573L973.571 522.454L1353.53 16.4502ZM584.091 1479.82L646.643 1540.32L731.178 1519.37L820.117 892.968L584.091 1479.82ZM1221.81 1454.61L1308.95 1453.19L1353.69 1378.58L973.571 872.573L1221.81 1454.61ZM1405.77 1338.49L1489.43 1314.46L1513.46 1230.79L1015.5 840.505L1405.77 1338.49ZM670.189 697.527L42.1465 621.271L0 697.527L42.1465 773.783L670.189 697.527ZM1067.71 749.755L1654.78 985.945L1715.28 923.395L1694.33 838.863L1067.71 749.755ZM1013.91 1519.12L1098.44 1540.08L1160.99 1479.58L924.728 892.732L1013.91 1519.12ZM1553.56 1178.55L1628.16 1133.8L1629.58 1046.67L1047.56 798.585L1553.56 1178.55ZM115.416 1046.83L116.834 1133.96L191.438 1178.71L697.205 798.746L115.416 1046.83ZM50.8953 838.917L29.703 923.368L90.2059 986.079L677.268 749.896L50.8953 838.917ZM231.538 1230.78L255.565 1314.45L339.229 1338.47L729.516 840.505L231.538 1230.78ZM796.231 1527.85L872.493 1570L948.749 1527.85L872.493 899.804L796.231 1527.85ZM391.467 1378.56L436.216 1453.17L523.346 1454.59L771.429 872.56L391.467 1378.56Z" fill="url(#paint0_radial_1_19)"/>
<defs>
<radialGradient id="paint0_radial_1_19" cx="0" cy="0" r="1" gradientUnits="userSpaceOnUse" gradientTransform="translate(872.5 697.5) rotate(90) scale(872.5)">
<stop stop-color="white"/>
<stop offset="0.963549" stop-color="white" stop-opacity="0"/>
</radialGradient>
</defs>
</svg>
