<svg width="183" height="160" viewBox="0 0 183 160" fill="none" xmlns="http://www.w3.org/2000/svg">
<path fill-rule="evenodd" clip-rule="evenodd" d="M53 39.0278L98.0123 0.708119C98.8173 0.244222 99.7305 0 100.66 0C101.59 0 102.503 0.244222 103.308 0.708119C104.226 1.22572 104.969 2.00533 105.441 2.94703C105.913 3.88872 106.092 4.94957 105.956 5.99359V155.308C105.856 156.183 105.54 157.02 105.034 157.742C104.529 158.464 103.851 159.048 103.062 159.442C102.273 159.836 101.397 160.027 100.515 159.997C99.6336 159.967 98.7732 159.718 98.0123 159.272L53 123.595V39.0278ZM13.3333 40H40V120H13.3333L4 117.333L0 109.333V50.6667L4 42.6667C6.66667 40 9.33333 40 13.3333 40ZM146 124.818C156.994 112.366 163.044 96.4576 163.044 80C163.044 63.5424 156.994 47.6341 146 35.1818L160.815 22C175.12 38.0786 183 58.6795 183 80C183 101.321 175.12 121.921 160.815 138L146 124.818ZM142 79.8367C142 91.5055 137.841 102.793 130.27 111.673V113L117 99.7347C121.666 94.4125 124.238 87.5768 124.238 80.5C124.238 73.4232 121.666 66.5875 117 61.2653L130.27 48C137.841 56.8809 142 68.168 142 79.8367Z" fill="black"/>
</svg>
