<svg width="17" height="14" viewBox="0 0 17 14" fill="none" xmlns="http://www.w3.org/2000/svg">
<path fill-rule="evenodd" clip-rule="evenodd" d="M6.41387 13.1421C6.45212 12.5394 6.48793 11.957 6.5268 11.3741C6.56806 10.747 6.61662 10.12 6.65062 9.4924C6.66037 9.31455 6.71924 9.18726 6.85706 9.0647C9.16787 7.03255 11.4738 4.99502 13.7809 2.95872C13.8192 2.92477 13.8665 2.89683 13.8939 2.85576C13.9455 2.77549 13.9862 2.688 14.0311 2.60417C13.923 2.5827 13.8077 2.52682 13.7093 2.54823C13.5697 2.57915 13.4367 2.65591 13.3134 2.73204C10.4399 4.50782 7.56743 6.28594 4.69806 8.06825C4.54812 8.16106 4.42306 8.18247 4.25 8.12711C3.04481 7.74404 1.83662 7.37461 0.630814 6.99562C0.485124 6.94983 0.336942 6.89155 0.211255 6.80884C-0.0358111 6.64644 -0.077122 6.39537 0.145691 6.20684C0.357624 6.02717 0.610755 5.8737 0.871875 5.77138C2.03331 5.3151 3.20388 4.88022 4.37206 4.43939C8.19099 2.995 12.0099 1.55178 15.8289 0.10797C15.8902 0.0847533 15.9527 0.0621784 16.0152 0.0425201C16.5167 -0.10973 16.9782 0.157961 16.9982 0.668378C17.0122 1.02946 16.9417 1.40005 16.8646 1.75699C16.0468 5.55601 15.2217 9.35381 14.3954 13.151C14.2041 14.0303 13.5945 14.2462 12.849 13.7066C11.5977 12.8012 10.3476 11.8952 9.08349 10.9797C9.03306 11.0219 8.98268 11.0599 8.93718 11.1028C8.33368 11.6763 7.73018 12.2503 7.12787 12.825C6.93781 13.0059 6.73018 13.1462 6.41387 13.1421Z" fill="black"/>
</svg>
