<svg width="17" height="14" viewBox="0 0 17 14" fill="none" xmlns="http://www.w3.org/2000/svg">
<path d="M5.53193 13.2177C11.7269 13.2177 15.1961 8.09648 15.1961 3.71868V3.30568C15.7743 2.81008 16.3525 2.23188 16.8481 1.57108C16.2699 1.81888 15.6091 1.98408 14.8657 2.06668C15.5671 1.66341 16.0961 1.01682 16.3525 0.24948C15.7743 0.66248 15.0309 0.91028 14.2049 1.07548C13.8876 0.736089 13.5039 0.465616 13.0776 0.280884C12.6513 0.0961519 12.1915 0.00111345 11.7269 0.0016802C11.2139 -0.0146865 10.7041 0.0887038 10.238 0.303652C9.77187 0.5186 9.36224 0.839193 9.04159 1.24001C8.72093 1.64082 8.49808 2.11083 8.39069 2.61277C8.2833 3.1147 8.29434 3.63475 8.42293 4.13168C5.69713 3.96648 3.21913 2.64488 1.56713 0.57988C1.13366 1.31769 1.00336 2.19489 1.20364 3.02684C1.40392 3.85879 1.91917 4.58058 2.64093 5.04028C2.09159 5.03523 1.55219 4.89328 1.07153 4.62728C1.05943 5.41201 1.32707 6.17542 1.82652 6.78081C2.32596 7.3862 3.0246 7.79403 3.79733 7.93128C3.2874 8.0785 2.75049 8.10676 2.22793 8.01388C2.44229 8.69606 2.87218 9.29029 3.45305 9.70733C4.03392 10.1244 4.73441 10.3417 5.44933 10.3267C4.73197 10.8895 3.90955 11.3036 3.0302 11.5447C2.15085 11.7859 1.23223 11.8491 0.328125 11.7309C1.81493 12.6395 3.63213 13.2177 5.53193 13.2177Z" fill="black"/>
</svg>
